<svg width="887" height="451" viewBox="0 0 887 451" fill="none" xmlns="http://www.w3.org/2000/svg">
<line x1="11.6843" y1="-3.27835e-08" x2="11.6843" y2="349.391" stroke="white" stroke-width="1.5"/>
<line x1="875.354" y1="350.141" x2="10.9341" y2="350.141" stroke="white" stroke-width="1.5"/>
<line x1="12.2278" y1="277.469" x2="875.353" y2="277.469" stroke="white" stroke-width="1.5"/>
<line x1="12.2278" y1="205.002" x2="875.353" y2="205.002" stroke="white" stroke-width="1.5"/>
<line x1="12.2278" y1="132.536" x2="875.353" y2="132.536" stroke="white" stroke-width="1.5"/>
<line x1="12.2278" y1="60.0698" x2="875.353" y2="60.0698" stroke="white" stroke-width="1.5"/>
<path d="M25.7198 51.2531V49.7171C23.8478 49.5971 22.0718 48.9011 20.6798 47.6771L21.5198 46.5731C22.7198 47.6771 24.1838 48.3251 25.7198 48.4691V42.2291L24.5918 41.9411C22.1198 41.3411 20.9198 40.0451 20.9198 38.1731C20.9198 35.7971 22.9118 34.0691 25.7918 33.9251V32.4371H26.7278V33.9491C28.4798 34.0691 30.1598 34.7891 31.3838 36.0851L30.4478 37.0451C29.4398 35.9171 28.1678 35.3411 26.7278 35.2211V41.1491L28.1198 41.4851C30.5438 42.0851 31.6958 43.3811 31.6958 45.3491C31.6958 47.8691 29.7758 49.6211 26.6798 49.7411V51.2531H25.7198ZM22.2878 38.1011C22.2878 39.4451 23.1758 40.2851 25.2878 40.7891L25.7918 40.9091V35.1971C23.6078 35.3171 22.2878 36.4691 22.2878 38.1011ZM26.6798 48.4931C28.9118 48.3731 30.3278 47.1491 30.3278 45.4211C30.3278 44.0291 29.4878 43.1411 27.3998 42.6371L26.6798 42.4691V48.4931ZM33.9421 50.2451V49.0931L40.5181 42.9491C42.9181 40.7171 43.6621 39.3011 43.6621 37.8131C43.6621 35.7251 42.1981 34.4771 39.9901 34.4771C37.9741 34.4771 36.2461 35.5571 35.0941 37.9571L33.9421 37.1891C35.2381 34.4771 37.4461 33.1571 39.9901 33.1571C43.0381 33.1571 45.0781 35.0531 45.0781 37.7891C45.0781 39.5171 44.2861 41.2451 41.8861 43.4771L36.0541 48.9251H45.4381V50.2451H33.9421ZM58.87 50.2451V34.7891H52.846V33.4451H66.358V34.7891H60.334V50.2451H58.87Z" fill="white"/>
<path d="M43.9321 329.98L196.629 186.989L280.742 271.101L385.559 245.221L494.259 161.108L599.723 3.23486L727.186 150.109L843.003 54.9965" stroke="#E19600" stroke-width="3"/>
<path d="M25.3495 394.096V392.944L31.9255 386.8C34.3255 384.568 35.0695 383.152 35.0695 381.664C35.0695 379.576 33.6055 378.328 31.3975 378.328C29.3815 378.328 27.6535 379.408 26.5015 381.808L25.3495 381.04C26.6455 378.328 28.8535 377.008 31.3975 377.008C34.4455 377.008 36.4855 378.904 36.4855 381.64C36.4855 383.368 35.6935 385.096 33.2935 387.328L27.4615 392.776H36.8455V394.096H25.3495ZM46.328 394.384C42.344 394.384 39.752 391.288 39.752 385.696C39.752 380.104 42.344 377.008 46.328 377.008C50.312 377.008 52.88 380.104 52.88 385.696C52.88 391.288 50.312 394.384 46.328 394.384ZM41.216 385.696C41.216 390.64 43.16 393.064 46.328 393.064C49.472 393.064 51.44 390.64 51.44 385.696C51.44 380.752 49.472 378.328 46.328 378.328C43.16 378.328 41.216 380.752 41.216 385.696ZM59.9609 394.096V378.928L55.2569 381.352V379.864L60.2249 377.296H61.4009V394.096H59.9609ZM66.7784 394.096L74.3144 378.616H64.7384V377.296H75.8744V378.472L68.3144 394.096H66.7784Z" fill="white"/>
<path d="M128.43 394.096V392.944L135.006 386.8C137.406 384.568 138.15 383.152 138.15 381.664C138.15 379.576 136.686 378.328 134.478 378.328C132.462 378.328 130.734 379.408 129.582 381.808L128.43 381.04C129.726 378.328 131.934 377.008 134.478 377.008C137.526 377.008 139.566 378.904 139.566 381.64C139.566 383.368 138.774 385.096 136.374 387.328L130.542 392.776H139.926V394.096H128.43ZM149.408 394.384C145.424 394.384 142.832 391.288 142.832 385.696C142.832 380.104 145.424 377.008 149.408 377.008C153.392 377.008 155.96 380.104 155.96 385.696C155.96 391.288 153.392 394.384 149.408 394.384ZM144.296 385.696C144.296 390.64 146.24 393.064 149.408 393.064C152.552 393.064 154.52 390.64 154.52 385.696C154.52 380.752 152.552 378.328 149.408 378.328C146.24 378.328 144.296 380.752 144.296 385.696ZM163.041 394.096V378.928L158.337 381.352V379.864L163.305 377.296H164.481V394.096H163.041ZM174.467 394.384C170.627 394.384 168.467 392.296 168.467 389.632C168.467 387.64 169.643 386.032 171.803 385.336C170.123 384.616 169.139 383.224 169.139 381.472C169.139 378.928 171.179 377.008 174.467 377.008C177.755 377.008 179.795 378.928 179.795 381.472C179.795 383.224 178.811 384.616 177.131 385.336C179.291 386.032 180.467 387.64 180.467 389.632C180.467 392.296 178.307 394.384 174.467 394.384ZM169.907 389.56C169.907 391.576 171.491 393.088 174.467 393.088C177.443 393.088 179.027 391.576 179.027 389.56C179.027 387.52 177.443 386.032 174.467 386.032C171.491 386.032 169.907 387.52 169.907 389.56ZM170.579 381.544C170.579 383.44 172.019 384.784 174.467 384.784C176.915 384.784 178.355 383.44 178.355 381.544C178.355 379.624 176.915 378.28 174.467 378.28C172.019 378.28 170.579 379.624 170.579 381.544Z" fill="white"/>
<path d="M237.259 394.096V392.944L243.835 386.8C246.235 384.568 246.979 383.152 246.979 381.664C246.979 379.576 245.515 378.328 243.307 378.328C241.291 378.328 239.563 379.408 238.411 381.808L237.259 381.04C238.555 378.328 240.763 377.008 243.307 377.008C246.355 377.008 248.395 378.904 248.395 381.64C248.395 383.368 247.603 385.096 245.203 387.328L239.371 392.776H248.755V394.096H237.259ZM258.237 394.384C254.253 394.384 251.661 391.288 251.661 385.696C251.661 380.104 254.253 377.008 258.237 377.008C262.221 377.008 264.789 380.104 264.789 385.696C264.789 391.288 262.221 394.384 258.237 394.384ZM253.125 385.696C253.125 390.64 255.069 393.064 258.237 393.064C261.381 393.064 263.349 390.64 263.349 385.696C263.349 380.752 261.381 378.328 258.237 378.328C255.069 378.328 253.125 380.752 253.125 385.696ZM271.87 394.096V378.928L267.166 381.352V379.864L272.134 377.296H273.31V394.096H271.87ZM283.08 377.008C286.488 377.008 289.104 379.264 289.104 382.864C289.104 384.712 288.408 386.608 286.752 388.792L282.792 394.096H281.04L285.672 388L285.816 387.808C284.88 388.312 283.872 388.552 282.816 388.552C279.504 388.552 277.008 386.272 277.008 382.816C277.008 379.336 279.624 377.008 283.08 377.008ZM278.424 382.792C278.424 385.48 280.272 387.256 283.056 387.256C284.448 387.256 285.768 386.824 287.088 385.552C287.472 384.64 287.664 383.728 287.664 382.864C287.664 380.08 285.816 378.304 283.056 378.304C280.272 378.304 278.424 380.08 278.424 382.792Z" fill="white"/>
<path d="M348.041 394.096V392.944L354.617 386.8C357.017 384.568 357.761 383.152 357.761 381.664C357.761 379.576 356.297 378.328 354.089 378.328C352.073 378.328 350.345 379.408 349.193 381.808L348.041 381.04C349.337 378.328 351.545 377.008 354.089 377.008C357.137 377.008 359.177 378.904 359.177 381.64C359.177 383.368 358.385 385.096 355.985 387.328L350.153 392.776H359.537V394.096H348.041ZM369.019 394.384C365.035 394.384 362.443 391.288 362.443 385.696C362.443 380.104 365.035 377.008 369.019 377.008C373.003 377.008 375.571 380.104 375.571 385.696C375.571 391.288 373.003 394.384 369.019 394.384ZM363.907 385.696C363.907 390.64 365.851 393.064 369.019 393.064C372.163 393.064 374.131 390.64 374.131 385.696C374.131 380.752 372.163 378.328 369.019 378.328C365.851 378.328 363.907 380.752 363.907 385.696ZM378.228 394.096V392.944L384.804 386.8C387.204 384.568 387.948 383.152 387.948 381.664C387.948 379.576 386.484 378.328 384.276 378.328C382.26 378.328 380.532 379.408 379.38 381.808L378.228 381.04C379.524 378.328 381.732 377.008 384.276 377.008C387.324 377.008 389.364 378.904 389.364 381.64C389.364 383.368 388.572 385.096 386.172 387.328L380.34 392.776H389.724V394.096H378.228ZM399.206 394.384C395.222 394.384 392.63 391.288 392.63 385.696C392.63 380.104 395.222 377.008 399.206 377.008C403.19 377.008 405.758 380.104 405.758 385.696C405.758 391.288 403.19 394.384 399.206 394.384ZM394.094 385.696C394.094 390.64 396.038 393.064 399.206 393.064C402.35 393.064 404.318 390.64 404.318 385.696C404.318 380.752 402.35 378.328 399.206 378.328C396.038 378.328 394.094 380.752 394.094 385.696Z" fill="white"/>
<path d="M469.738 394.096V392.944L476.314 386.8C478.714 384.568 479.458 383.152 479.458 381.664C479.458 379.576 477.994 378.328 475.786 378.328C473.77 378.328 472.042 379.408 470.89 381.808L469.738 381.04C471.034 378.328 473.242 377.008 475.786 377.008C478.834 377.008 480.874 378.904 480.874 381.64C480.874 383.368 480.082 385.096 477.682 387.328L471.85 392.776H481.234V394.096H469.738ZM490.717 394.384C486.733 394.384 484.141 391.288 484.141 385.696C484.141 380.104 486.733 377.008 490.717 377.008C494.701 377.008 497.269 380.104 497.269 385.696C497.269 391.288 494.701 394.384 490.717 394.384ZM485.605 385.696C485.605 390.64 487.549 393.064 490.717 393.064C493.861 393.064 495.829 390.64 495.829 385.696C495.829 380.752 493.861 378.328 490.717 378.328C487.549 378.328 485.605 380.752 485.605 385.696ZM499.926 394.096V392.944L506.502 386.8C508.902 384.568 509.646 383.152 509.646 381.664C509.646 379.576 508.182 378.328 505.974 378.328C503.958 378.328 502.23 379.408 501.078 381.808L499.926 381.04C501.222 378.328 503.43 377.008 505.974 377.008C509.022 377.008 511.062 378.904 511.062 381.64C511.062 383.368 510.27 385.096 507.87 387.328L502.038 392.776H511.422V394.096H499.926ZM518.342 394.096V378.928L513.638 381.352V379.864L518.606 377.296H519.782V394.096H518.342Z" fill="white"/>
<path d="M581.516 394.096V392.944L588.092 386.8C590.492 384.568 591.236 383.152 591.236 381.664C591.236 379.576 589.772 378.328 587.564 378.328C585.548 378.328 583.82 379.408 582.668 381.808L581.516 381.04C582.812 378.328 585.02 377.008 587.564 377.008C590.612 377.008 592.652 378.904 592.652 381.64C592.652 383.368 591.86 385.096 589.46 387.328L583.628 392.776H593.012V394.096H581.516ZM602.495 394.384C598.511 394.384 595.919 391.288 595.919 385.696C595.919 380.104 598.511 377.008 602.495 377.008C606.479 377.008 609.047 380.104 609.047 385.696C609.047 391.288 606.479 394.384 602.495 394.384ZM597.383 385.696C597.383 390.64 599.327 393.064 602.495 393.064C605.639 393.064 607.607 390.64 607.607 385.696C607.607 380.752 605.639 378.328 602.495 378.328C599.327 378.328 597.383 380.752 597.383 385.696ZM611.704 394.096V392.944L618.28 386.8C620.68 384.568 621.424 383.152 621.424 381.664C621.424 379.576 619.96 378.328 617.752 378.328C615.736 378.328 614.008 379.408 612.856 381.808L611.704 381.04C613 378.328 615.208 377.008 617.752 377.008C620.8 377.008 622.84 378.904 622.84 381.64C622.84 383.368 622.048 385.096 619.648 387.328L613.816 392.776H623.2V394.096H611.704ZM625.602 394.096V392.944L632.178 386.8C634.578 384.568 635.322 383.152 635.322 381.664C635.322 379.576 633.858 378.328 631.65 378.328C629.634 378.328 627.906 379.408 626.754 381.808L625.602 381.04C626.898 378.328 629.106 377.008 631.65 377.008C634.698 377.008 636.738 378.904 636.738 381.64C636.738 383.368 635.946 385.096 633.546 387.328L627.714 392.776H637.098V394.096H625.602Z" fill="white"/>
<path d="M687.803 394.096V392.944L694.379 386.8C696.779 384.568 697.523 383.152 697.523 381.664C697.523 379.576 696.059 378.328 693.851 378.328C691.835 378.328 690.107 379.408 688.955 381.808L687.803 381.04C689.099 378.328 691.307 377.008 693.851 377.008C696.899 377.008 698.939 378.904 698.939 381.64C698.939 383.368 698.147 385.096 695.747 387.328L689.915 392.776H699.299V394.096H687.803ZM708.782 394.384C704.798 394.384 702.206 391.288 702.206 385.696C702.206 380.104 704.798 377.008 708.782 377.008C712.766 377.008 715.334 380.104 715.334 385.696C715.334 391.288 712.766 394.384 708.782 394.384ZM703.67 385.696C703.67 390.64 705.614 393.064 708.782 393.064C711.926 393.064 713.894 390.64 713.894 385.696C713.894 380.752 711.926 378.328 708.782 378.328C705.614 378.328 703.67 380.752 703.67 385.696ZM717.991 394.096V392.944L724.567 386.8C726.967 384.568 727.711 383.152 727.711 381.664C727.711 379.576 726.247 378.328 724.039 378.328C722.023 378.328 720.295 379.408 719.143 381.808L717.991 381.04C719.287 378.328 721.495 377.008 724.039 377.008C727.087 377.008 729.127 378.904 729.127 381.64C729.127 383.368 728.335 385.096 725.935 387.328L720.103 392.776H729.487V394.096H717.991ZM737.313 394.384C735.009 394.384 732.969 393.544 731.673 391.888L732.633 390.928C733.857 392.368 735.465 393.064 737.313 393.064C740.001 393.064 741.585 391.624 741.585 389.488C741.585 387.376 740.001 386.176 736.905 386.176H735.297V384.88H737.313C739.977 384.88 741.393 383.536 741.393 381.616C741.393 379.672 739.953 378.328 737.505 378.328C735.585 378.328 734.001 379.168 732.897 380.8L731.889 379.912C733.305 377.92 735.273 377.008 737.529 377.008C740.841 377.008 742.809 378.928 742.809 381.568C742.809 383.536 741.729 385 739.785 385.504C741.825 386.008 743.025 387.496 743.025 389.584C743.025 392.416 740.793 394.384 737.313 394.384Z" fill="white"/>
<path d="M806.468 394.096V392.944L813.044 386.8C815.444 384.568 816.188 383.152 816.188 381.664C816.188 379.576 814.724 378.328 812.516 378.328C810.5 378.328 808.772 379.408 807.62 381.808L806.468 381.04C807.764 378.328 809.972 377.008 812.516 377.008C815.564 377.008 817.604 378.904 817.604 381.64C817.604 383.368 816.812 385.096 814.412 387.328L808.58 392.776H817.964V394.096H806.468ZM827.447 394.384C823.463 394.384 820.871 391.288 820.871 385.696C820.871 380.104 823.463 377.008 827.447 377.008C831.431 377.008 833.999 380.104 833.999 385.696C833.999 391.288 831.431 394.384 827.447 394.384ZM822.335 385.696C822.335 390.64 824.279 393.064 827.447 393.064C830.591 393.064 832.559 390.64 832.559 385.696C832.559 380.752 830.591 378.328 827.447 378.328C824.279 378.328 822.335 380.752 822.335 385.696ZM836.656 394.096V392.944L843.232 386.8C845.632 384.568 846.376 383.152 846.376 381.664C846.376 379.576 844.912 378.328 842.704 378.328C840.688 378.328 838.96 379.408 837.808 381.808L836.656 381.04C837.952 378.328 840.16 377.008 842.704 377.008C845.752 377.008 847.792 378.904 847.792 381.64C847.792 383.368 847 385.096 844.6 387.328L838.768 392.776H848.152V394.096H836.656ZM859.417 394.096V390.232H850.153V389.008L858.961 377.296H860.761V388.96H863.353V390.232H860.761V394.096H859.417ZM851.761 388.96H859.417V378.808L851.761 388.96Z" fill="white"/>
<path d="M25.206 124.253V122.717C23.334 122.597 21.558 121.901 20.166 120.677L21.006 119.573C22.206 120.677 23.67 121.325 25.206 121.469V115.229L24.078 114.941C21.606 114.341 20.406 113.045 20.406 111.173C20.406 108.797 22.398 107.069 25.278 106.925V105.437H26.214V106.949C27.966 107.069 29.646 107.789 30.87 109.085L29.934 110.045C28.926 108.917 27.654 108.341 26.214 108.221V114.149L27.606 114.485C30.03 115.085 31.182 116.381 31.182 118.349C31.182 120.869 29.262 122.621 26.166 122.741V124.253H25.206ZM21.774 111.101C21.774 112.445 22.662 113.285 24.774 113.789L25.278 113.909V108.197C23.094 108.317 21.774 109.469 21.774 111.101ZM26.166 121.493C28.398 121.373 29.814 120.149 29.814 118.421C29.814 117.029 28.974 116.141 26.886 115.637L26.166 115.469V121.493ZM37.9927 123.245V108.077L33.2887 110.501V109.013L38.2567 106.445H39.4327V123.245H37.9927ZM54.2077 123.245V107.789H48.1837V106.445H61.6957V107.789H55.6717V123.245H54.2077Z" fill="white"/>
<path d="M23.1873 197.253V195.717C21.3153 195.597 19.5393 194.901 18.1473 193.677L18.9873 192.573C20.1873 193.677 21.6513 194.325 23.1873 194.469V188.229L22.0593 187.941C19.5873 187.341 18.3873 186.045 18.3873 184.173C18.3873 181.797 20.3793 180.069 23.2593 179.925V178.437H24.1953V179.949C25.9473 180.069 27.6273 180.789 28.8513 182.085L27.9153 183.045C26.9073 181.917 25.6353 181.341 24.1953 181.221V187.149L25.5873 187.485C28.0113 188.085 29.1633 189.381 29.1633 191.349C29.1633 193.869 27.2433 195.621 24.1473 195.741V197.253H23.1873ZM19.7553 184.101C19.7553 185.445 20.6433 186.285 22.7553 186.789L23.2593 186.909V181.197C21.0753 181.317 19.7553 182.469 19.7553 184.101ZM24.1473 194.493C26.3793 194.373 27.7953 193.149 27.7953 191.421C27.7953 190.029 26.9553 189.141 24.8673 188.637L24.1473 188.469V194.493ZM37.0735 196.533C34.8895 196.533 32.9695 195.765 31.5055 194.181L32.4415 193.197C33.7135 194.613 35.2735 195.213 37.0495 195.213C39.8335 195.213 41.6575 193.629 41.6575 191.037C41.6575 188.589 40.0735 187.125 37.5055 187.125C35.9935 187.125 34.6975 187.581 33.4735 188.517L32.3455 187.845L32.6335 179.445H42.1855V180.765H33.9295L33.7375 186.933C34.8895 186.165 36.1375 185.805 37.5775 185.805C40.7695 185.805 43.0735 187.749 43.0735 191.037C43.0735 194.301 40.7215 196.533 37.0735 196.533ZM52.3411 196.533C48.3571 196.533 45.7651 193.437 45.7651 187.845C45.7651 182.253 48.3571 179.157 52.3411 179.157C56.3251 179.157 58.8931 182.253 58.8931 187.845C58.8931 193.437 56.3251 196.533 52.3411 196.533ZM47.2291 187.845C47.2291 192.789 49.1731 195.213 52.3411 195.213C55.4851 195.213 57.4531 192.789 57.4531 187.845C57.4531 182.901 55.4851 180.477 52.3411 180.477C49.1731 180.477 47.2291 182.901 47.2291 187.845ZM68.6301 196.533C64.6461 196.533 62.0541 193.437 62.0541 187.845C62.0541 182.253 64.6461 179.157 68.6301 179.157C72.6141 179.157 75.1821 182.253 75.1821 187.845C75.1821 193.437 72.6141 196.533 68.6301 196.533ZM63.5181 187.845C63.5181 192.789 65.4621 195.213 68.6301 195.213C71.7741 195.213 73.7421 192.789 73.7421 187.845C73.7421 182.901 71.7741 180.477 68.6301 180.477C65.4621 180.477 63.5181 182.901 63.5181 187.845ZM85.441 196.245V179.445H91.921C94.945 179.445 96.841 181.053 96.841 183.669C96.841 185.349 96.049 186.525 94.609 187.149C96.841 187.701 98.113 189.213 98.113 191.469C98.113 194.397 96.025 196.245 92.473 196.245H85.441ZM86.905 194.925H92.473C95.137 194.925 96.625 193.581 96.625 191.445C96.625 189.261 95.113 187.917 92.473 187.917H86.905V194.925ZM86.905 186.645H91.921C94.153 186.645 95.377 185.517 95.377 183.669C95.377 181.797 94.153 180.765 91.921 180.765H86.905V186.645Z" fill="white"/>
<path d="M25.2383 270.253V268.717C23.3663 268.597 21.5903 267.901 20.1983 266.677L21.0383 265.573C22.2383 266.677 23.7023 267.325 25.2383 267.469V261.229L24.1103 260.941C21.6383 260.341 20.4383 259.045 20.4383 257.173C20.4383 254.797 22.4303 253.069 25.3103 252.925V251.437H26.2463V252.949C27.9983 253.069 29.6783 253.789 30.9023 255.085L29.9663 256.045C28.9583 254.917 27.6863 254.341 26.2463 254.221V260.149L27.6383 260.485C30.0623 261.085 31.2143 262.381 31.2143 264.349C31.2143 266.869 29.2943 268.621 26.1983 268.741V270.253H25.2383ZM21.8063 257.101C21.8063 258.445 22.6943 259.285 24.8063 259.789L25.3103 259.909V254.197C23.1263 254.317 21.8063 255.469 21.8063 257.101ZM26.1983 267.493C28.4303 267.373 29.8463 266.149 29.8463 264.421C29.8463 263.029 29.0063 262.141 26.9183 261.637L26.1983 261.469V267.493ZM38.025 269.245V254.077L33.321 256.501V255.013L38.289 252.445H39.465V269.245H38.025ZM50.2905 269.533C46.3065 269.533 43.7145 266.437 43.7145 260.845C43.7145 255.253 46.3065 252.157 50.2905 252.157C54.2745 252.157 56.8425 255.253 56.8425 260.845C56.8425 266.437 54.2745 269.533 50.2905 269.533ZM45.1785 260.845C45.1785 265.789 47.1225 268.213 50.2905 268.213C53.4345 268.213 55.4025 265.789 55.4025 260.845C55.4025 255.901 53.4345 253.477 50.2905 253.477C47.1225 253.477 45.1785 255.901 45.1785 260.845ZM66.5796 269.533C62.5956 269.533 60.0036 266.437 60.0036 260.845C60.0036 255.253 62.5956 252.157 66.5796 252.157C70.5636 252.157 73.1316 255.253 73.1316 260.845C73.1316 266.437 70.5636 269.533 66.5796 269.533ZM61.4676 260.845C61.4676 265.789 63.4116 268.213 66.5796 268.213C69.7236 268.213 71.6916 265.789 71.6916 260.845C71.6916 255.901 69.7236 253.477 66.5796 253.477C63.4116 253.477 61.4676 255.901 61.4676 260.845ZM83.3905 269.245V252.445H89.8705C92.8945 252.445 94.7905 254.053 94.7905 256.669C94.7905 258.349 93.9985 259.525 92.5585 260.149C94.7905 260.701 96.0625 262.213 96.0625 264.469C96.0625 267.397 93.9745 269.245 90.4225 269.245H83.3905ZM84.8545 267.925H90.4225C93.0865 267.925 94.5745 266.581 94.5745 264.445C94.5745 262.261 93.0625 260.917 90.4225 260.917H84.8545V267.925ZM84.8545 259.645H89.8705C92.1025 259.645 93.3265 258.517 93.3265 256.669C93.3265 254.797 92.1025 253.765 89.8705 253.765H84.8545V259.645Z" fill="white"/>
<path d="M29.0082 434.533C24.1842 434.533 20.3922 430.837 20.3922 425.869C20.3922 420.853 24.2562 417.157 29.0322 417.157C31.9842 417.157 34.7442 418.597 36.3282 421.141L35.1282 421.909C33.8082 419.701 31.5282 418.501 29.0322 418.501C25.0242 418.501 21.8802 421.549 21.8802 425.845C21.8802 430.141 25.0242 433.189 29.0322 433.189C31.6242 433.189 33.9042 431.893 35.1762 429.757L36.3762 430.501C34.8162 433.021 32.1042 434.533 29.0082 434.533ZM45.3097 434.533C41.5897 434.533 39.0457 432.037 39.0457 428.269C39.0457 424.477 41.6857 421.837 45.3337 421.837C48.7177 421.837 51.0937 424.165 51.0937 427.765C51.0937 428.029 51.0937 428.221 51.0697 428.437H40.4377C40.5337 431.509 42.5017 433.285 45.3337 433.285C47.2777 433.285 48.7657 432.421 49.7737 430.885L50.7817 431.653C49.7017 433.429 47.7817 434.533 45.3097 434.533ZM40.5097 427.237H49.7017C49.4857 424.525 47.8297 423.061 45.3337 423.061C42.7657 423.061 40.8697 424.621 40.5097 427.237ZM54.4861 434.245V416.533H55.8781V434.245H54.4861ZM60.0408 434.245V416.533H61.4328V429.061L69.0168 422.125H70.8168L65.1768 427.333L71.3448 434.245H69.5688L64.1928 428.245L61.4328 430.813V434.245H60.0408ZM78.7087 434.533C75.0847 434.533 72.4207 431.845 72.4207 428.197C72.4207 424.549 75.0847 421.837 78.7087 421.837C82.3087 421.837 84.9967 424.549 84.9967 428.197C84.9967 431.845 82.3087 434.533 78.7087 434.533ZM73.8367 428.197C73.8367 431.149 75.9007 433.261 78.7087 433.261C81.5167 433.261 83.5567 431.149 83.5567 428.197C83.5567 425.245 81.5167 423.109 78.7087 423.109C75.9007 423.109 73.8367 425.245 73.8367 428.197ZM91.8881 434.245L86.3921 422.125H87.9281L92.5121 432.445L97.0961 422.125H98.6321L93.1601 434.245H91.8881ZM106.173 434.533C102.741 434.533 100.053 431.893 100.053 428.197C100.053 424.501 102.741 421.837 106.173 421.837C107.853 421.837 109.485 422.509 110.493 423.709V422.125H111.885V434.245H110.493V432.685C109.485 433.885 107.853 434.533 106.173 434.533ZM101.469 428.197C101.469 431.293 103.653 433.261 106.293 433.261C107.925 433.261 109.533 432.541 110.493 431.125V425.269C109.533 423.853 107.925 423.109 106.293 423.109C103.653 423.109 101.469 425.101 101.469 428.197ZM105.405 420.205L107.013 416.845H108.741L106.629 420.205H105.405ZM127.001 434.485C124.505 434.485 123.161 433.141 123.161 430.237V423.349H120.257V422.125H123.161V419.053H124.553V422.125H129.137V423.349H124.553V430.117C124.553 432.277 125.441 433.213 127.145 433.213C127.817 433.213 128.561 433.069 129.233 432.781L129.545 433.933C128.729 434.317 127.889 434.485 127.001 434.485ZM132.228 434.245V422.125H133.62V424.093C134.388 422.653 135.9 421.837 137.46 421.837C137.868 421.837 138.3 421.909 138.732 422.029L138.612 423.301C138.228 423.205 137.82 423.157 137.412 423.157C135.828 423.157 134.412 423.997 133.62 425.797V434.245H132.228ZM140.807 434.245V433.285L148.703 423.373H140.903V422.125H150.575V423.085L142.679 432.997H150.671V434.245H140.807ZM142.271 416.773H143.639L145.727 419.293L147.815 416.773H149.183L146.351 420.133H145.103L142.271 416.773ZM163.006 427.333C163.006 424.549 161.638 423.109 159.43 423.109C157.894 423.109 156.358 423.805 155.23 425.317V434.245H153.838V422.125H155.23V423.805C156.358 422.509 157.99 421.837 159.67 421.837C162.502 421.837 164.398 423.733 164.398 427.045V434.245H163.006V427.333ZM168.416 434.245V422.125H169.808V434.245H168.416ZM168.056 420.205L169.4 416.845H171.104L169.28 420.205H168.056ZM180.228 434.245V416.533H181.62V429.061L189.204 422.125H191.004L185.364 427.333L191.532 434.245H189.756L184.38 428.245L181.62 430.813V434.245H180.228ZM198.728 434.533C195.296 434.533 192.608 431.893 192.608 428.197C192.608 424.501 195.296 421.837 198.728 421.837C200.408 421.837 202.04 422.509 203.048 423.709V422.125H204.44V434.245H203.048V432.685C202.04 433.885 200.408 434.533 198.728 434.533ZM194.024 428.197C194.024 431.293 196.208 433.261 198.848 433.261C200.48 433.261 202.088 432.541 203.048 431.125V425.269C202.088 423.853 200.48 423.109 198.848 423.109C196.208 423.109 194.024 425.101 194.024 428.197ZM214.324 434.533C212.62 434.533 210.964 433.885 209.98 432.637V439.477H208.588V422.125H209.98V423.733C210.964 422.509 212.62 421.837 214.324 421.837C217.732 421.837 220.444 424.501 220.444 428.197C220.444 431.893 217.732 434.533 214.324 434.533ZM209.98 431.101C210.94 432.517 212.572 433.261 214.18 433.261C216.844 433.261 219.028 431.293 219.028 428.197C219.028 425.101 216.844 423.109 214.18 423.109C212.572 423.109 210.94 423.853 209.98 425.293V431.101ZM223.775 434.245V422.125H225.167V434.245H223.775ZM223.319 418.693C223.319 418.045 223.847 417.541 224.471 417.541C225.119 417.541 225.647 418.045 225.647 418.693C225.647 419.341 225.119 419.845 224.471 419.845C223.847 419.845 223.319 419.341 223.319 418.693ZM234.298 434.485C231.802 434.485 230.458 433.141 230.458 430.237V423.349H227.554V422.125H230.458V419.053H231.85V422.125H236.434V423.349H231.85V430.117C231.85 432.277 232.738 433.213 234.442 433.213C235.114 433.213 235.858 433.069 236.53 432.781L236.842 433.933C236.026 434.317 235.186 434.485 234.298 434.485ZM244.548 434.533C241.116 434.533 238.428 431.893 238.428 428.197C238.428 424.501 241.116 421.837 244.548 421.837C246.228 421.837 247.86 422.509 248.868 423.709V422.125H250.26V434.245H248.868V432.685C247.86 433.885 246.228 434.533 244.548 434.533ZM239.844 428.197C239.844 431.293 242.028 433.261 244.668 433.261C246.3 433.261 247.908 432.541 248.868 431.125V425.269C247.908 423.853 246.3 423.109 244.668 423.109C242.028 423.109 239.844 425.101 239.844 428.197ZM254.408 434.245V416.533H255.8V434.245H254.408ZM259.963 434.245V422.125H261.355V434.245H259.963ZM259.507 418.693C259.507 418.045 260.035 417.541 260.659 417.541C261.307 417.541 261.835 418.045 261.835 418.693C261.835 419.341 261.307 419.845 260.659 419.845C260.035 419.845 259.507 419.341 259.507 418.693ZM264.557 434.245V433.285L272.453 423.373H264.653V422.125H274.325V423.085L266.429 432.997H274.421V434.245H264.557ZM282.611 434.533C279.179 434.533 276.491 431.893 276.491 428.197C276.491 424.501 279.179 421.837 282.611 421.837C284.291 421.837 285.923 422.509 286.931 423.709V422.125H288.323V434.245H286.931V432.685C285.923 433.885 284.291 434.533 282.611 434.533ZM277.907 428.197C277.907 431.293 280.091 433.261 282.731 433.261C284.363 433.261 285.971 432.541 286.931 431.125V425.269C285.971 423.853 284.363 423.109 282.731 423.109C280.091 423.109 277.907 425.101 277.907 428.197ZM297.942 434.533C294.342 434.533 291.678 431.941 291.678 428.245C291.678 424.525 294.438 421.837 297.966 421.837C300.03 421.837 301.926 422.749 303.03 424.405L301.926 425.221C300.942 423.829 299.526 423.109 297.942 423.109C295.278 423.109 293.118 425.149 293.118 428.221C293.118 431.269 295.302 433.261 297.966 433.261C299.67 433.261 301.158 432.445 302.166 430.981L303.222 431.749C302.07 433.525 300.174 434.533 297.942 434.533ZM311.724 434.533C308.004 434.533 305.46 432.037 305.46 428.269C305.46 424.477 308.1 421.837 311.748 421.837C315.132 421.837 317.508 424.165 317.508 427.765C317.508 428.029 317.508 428.221 317.484 428.437H306.852C306.948 431.509 308.916 433.285 311.748 433.285C313.692 433.285 315.18 432.421 316.188 430.885L317.196 431.653C316.116 433.429 314.196 434.533 311.724 434.533ZM306.924 427.237H316.116C315.9 424.525 314.244 423.061 311.748 423.061C309.18 423.061 307.284 424.621 306.924 427.237ZM327.158 434.245V416.533H328.55V429.061L336.134 422.125H337.934L332.294 427.333L338.462 434.245H336.686L331.31 428.245L328.55 430.813V434.245H327.158ZM340.963 434.245V422.125H342.355V424.093C343.123 422.653 344.635 421.837 346.195 421.837C346.603 421.837 347.035 421.909 347.467 422.029L347.347 423.301C346.963 423.205 346.555 423.157 346.147 423.157C344.563 423.157 343.147 423.997 342.355 425.797V434.245H340.963ZM352.224 439.477L354.696 433.981L349.08 422.125H350.664L355.44 432.349L360.072 422.125H361.56L353.712 439.477H352.224ZM369.738 434.533C368.034 434.533 366.378 433.885 365.394 432.637V439.477H364.002V422.125H365.394V423.733C366.378 422.509 368.034 421.837 369.738 421.837C373.146 421.837 375.858 424.501 375.858 428.197C375.858 431.893 373.146 434.533 369.738 434.533ZM365.394 431.101C366.354 432.517 367.986 433.261 369.594 433.261C372.258 433.261 374.442 431.293 374.442 428.197C374.442 425.101 372.258 423.109 369.594 423.109C367.986 423.109 366.354 423.853 365.394 425.293V431.101ZM383.993 434.485C381.497 434.485 380.153 433.141 380.153 430.237V423.349H377.249V422.125H380.153V419.053H381.545V422.125H386.129V423.349H381.545V430.117C381.545 432.277 382.433 433.213 384.137 433.213C384.809 433.213 385.553 433.069 386.225 432.781L386.537 433.933C385.721 434.317 384.881 434.485 383.993 434.485ZM394.412 434.533C390.788 434.533 388.124 431.845 388.124 428.197C388.124 424.549 390.788 421.837 394.412 421.837C398.012 421.837 400.7 424.549 400.7 428.197C400.7 431.845 398.012 434.533 394.412 434.533ZM389.54 428.197C389.54 431.149 391.604 433.261 394.412 433.261C397.22 433.261 399.26 431.149 399.26 428.197C399.26 425.245 397.22 423.109 394.412 423.109C391.604 423.109 389.54 425.245 389.54 428.197ZM420.954 427.189C420.954 424.453 419.658 423.109 417.762 423.109C416.37 423.109 414.858 423.853 413.754 425.509C413.826 425.941 413.874 426.397 413.874 426.901V434.245H412.482V427.189C412.482 424.453 411.186 423.109 409.29 423.109C407.946 423.109 406.506 423.805 405.402 425.317V434.245H404.01V422.125H405.402V423.805C406.506 422.509 408.042 421.837 409.554 421.837C411.306 421.837 412.698 422.701 413.394 424.309C414.618 422.677 416.322 421.837 418.026 421.837C420.57 421.837 422.346 423.637 422.346 426.901V434.245H420.954V427.189ZM431.841 434.533C428.121 434.533 425.577 432.037 425.577 428.269C425.577 424.477 428.217 421.837 431.865 421.837C435.249 421.837 437.625 424.165 437.625 427.765C437.625 428.029 437.625 428.221 437.601 428.437H426.969C427.065 431.509 429.033 433.285 431.865 433.285C433.809 433.285 435.297 432.421 436.305 430.885L437.313 431.653C436.233 433.429 434.313 434.533 431.841 434.533ZM427.041 427.237H436.233C436.017 424.525 434.361 423.061 431.865 423.061C429.297 423.061 427.401 424.621 427.041 427.237ZM428.337 416.773H429.705L431.793 419.293L433.881 416.773H435.249L432.417 420.133H431.169L428.337 416.773ZM450.185 427.333C450.185 424.549 448.817 423.109 446.609 423.109C445.073 423.109 443.537 423.805 442.409 425.317V434.245H441.017V422.125H442.409V423.805C443.537 422.509 445.169 421.837 446.849 421.837C449.681 421.837 451.577 423.733 451.577 427.045V434.245H450.185V427.333Z" fill="#E19600"/>
</svg>
