<svg width="20" height="14" viewBox="0 0 20 14" fill="none" xmlns="http://www.w3.org/2000/svg">
<g clip-path="url(#clip0_181_115)">
<path d="M1.13693e-06 0.994998C1.18502e-06 0.444998 0.446002 -1.70946e-06 0.995002 -1.66147e-06L9.005 -9.61213e-07C9.2689 -9.38143e-07 9.522 0.104799 9.7086 0.291399C9.8952 0.477999 10 0.731099 10 0.994999C10 1.2589 9.8952 1.512 9.7086 1.6986C9.522 1.8852 9.2689 1.99 9.005 1.99L0.995002 1.99C0.445002 1.99 1.08885e-06 1.545 1.13693e-06 0.994998ZM6.11959e-07 7C6.60042e-07 6.45 0.446002 6.005 0.995002 6.005L19.005 6.005C19.2689 6.005 19.522 6.10983 19.7086 6.29643C19.8952 6.48303 20 6.73611 20 7C20 7.26389 19.8952 7.51697 19.7086 7.70357C19.522 7.89017 19.2689 7.995 19.005 7.995L0.995001 7.995C0.445001 7.995 5.63964e-07 7.549 6.11959e-07 7ZM0.995001 12.01C0.731101 12.01 0.478001 12.1148 0.291401 12.3014C0.104801 12.488 1.10056e-07 12.7411 8.69857e-08 13.005C6.39156e-08 13.2689 0.104801 13.522 0.291401 13.7086C0.478001 13.8952 0.731101 14 0.995001 14L13.005 14C13.1357 14 13.265 13.9743 13.3858 13.9243C13.5065 13.8743 13.6162 13.801 13.7086 13.7086C13.801 13.6162 13.8743 13.5065 13.9243 13.3858C13.9743 13.2651 14 13.1357 14 13.005C14 12.8743 13.9743 12.7449 13.9243 12.6242C13.8743 12.5035 13.801 12.3938 13.7086 12.3014C13.6162 12.209 13.5065 12.1357 13.3858 12.0857C13.2651 12.0357 13.1357 12.01 13.005 12.01L0.995001 12.01Z" fill="white"/>
</g>
<defs>
<clipPath id="clip0_181_115">
<rect width="20" height="14" fill="white" transform="translate(20 14) rotate(-180)"/>
</clipPath>
</defs>
</svg>
