<svg width="100" height="100" viewBox="0 0 100 100" fill="none" xmlns="http://www.w3.org/2000/svg">
<g clip-path="url(#clip0_204_8)">
<path d="M38 1.4625L39.1188 6.00625C34.695 7.10242 30.4605 8.85521 26.5563 11.2062L24.1625 7.1875C28.4552 4.58731 33.1254 2.6568 38 1.4625ZM62 1.4625L60.8875 6C65.3112 7.09617 69.5457 8.84896 73.45 11.2L75.875 7.18125C71.564 4.58781 66.8864 2.65985 62 1.4625ZM7.1875 24.15C4.59477 28.4509 2.66478 33.1178 1.4625 37.9938L6.00625 39.1187C7.10242 34.695 8.85521 30.4605 11.2062 26.5563L7.1875 24.1437V24.15ZM4.6875 50C4.67973 47.7278 4.849 45.4584 5.19375 43.2125L0.56875 42.5C-0.184253 47.4675 -0.184253 52.52 0.56875 57.4875L5.19375 56.7875C4.849 54.5416 4.67973 52.2722 4.6875 50ZM75.8375 92.8L73.4375 88.8C69.543 91.1557 65.3136 92.9068 60.8937 93.9937L62.0188 98.5437C66.8871 97.3332 71.5455 95.397 75.8375 92.8ZM95.3188 50C95.3188 52.2792 95.1479 54.5417 94.8062 56.7875L99.4313 57.4875C100.184 52.52 100.184 47.4675 99.4313 42.5L94.8062 43.2125C95.1479 45.4625 95.3188 47.725 95.3188 50ZM98.5437 61.9875L93.9937 60.8625C92.8988 65.2905 91.1459 69.5293 88.7937 73.4375L92.8125 75.8562C95.4097 71.548 97.3419 66.8724 98.5437 61.9875ZM56.7937 94.8C52.2937 95.4875 47.7125 95.4875 43.2125 94.8L42.5125 99.4375C47.4759 100.189 52.5241 100.189 57.4875 99.4375L56.7875 94.8062L56.7937 94.8ZM86.4812 76.875C83.7823 80.5381 80.5434 83.7707 76.875 86.4625L79.6625 90.2437C83.703 87.276 87.2742 83.7174 90.2562 79.6875L86.4812 76.875ZM76.875 13.5188C80.5437 16.2188 83.7812 19.4563 86.4812 23.125L90.2562 20.3125C87.2847 16.2804 83.7241 12.7177 79.6938 9.74375L76.875 13.5188ZM13.5188 23.125C16.2163 19.4552 19.4552 16.2163 23.125 13.5188L20.3125 9.74375C16.2804 12.7153 12.7177 16.2759 9.74375 20.3063L13.5188 23.1187V23.125ZM92.8187 24.1437L88.7937 26.5625C91.15 30.4563 92.9062 34.6875 93.9937 39.1063L98.5437 37.9813C97.3409 33.1075 95.4109 28.4427 92.8187 24.1437ZM43.2063 5.19375C47.7059 4.51681 52.2816 4.51681 56.7812 5.19375L57.4812 0.56875C52.5179 -0.18299 47.4696 -0.18299 42.5063 0.56875L43.2063 5.19375ZM15.9187 91.5L6.25 93.75L8.5 84.0687L3.94375 83.0062L1.6875 92.6813C1.50521 93.4574 1.52388 94.2672 1.74174 95.034C1.95961 95.8009 2.36947 96.4996 2.93258 97.0639C3.49568 97.6283 4.19343 98.0397 4.95983 98.2593C5.72624 98.4788 6.53598 98.4993 7.3125 98.3187L16.9875 96.0875L15.9187 91.5ZM4.9125 78.825L9.4875 79.875L11.05 73.1687C8.76746 69.3434 7.06557 65.2003 6 60.875L1.45625 62C2.47616 66.1425 4.02205 70.1375 6.05625 73.8875L4.9125 78.825ZM26.7875 88.9687L20.0813 90.5312L21.1437 95.1L26.0813 93.95C29.8313 95.9937 33.825 97.5375 37.9688 98.5562L39.0938 94.0062C34.7782 92.9319 30.6458 91.2237 26.8313 88.9375L26.7875 88.9687ZM50 9.375C44.6651 9.37664 39.3827 10.4291 34.4544 12.4722C29.5262 14.5153 25.0487 17.5091 21.2774 21.2826C17.5062 25.0562 14.5152 29.5356 12.4751 34.465C10.435 39.3945 9.38586 44.6775 9.3875 50.0125C9.39447 57.6538 11.5564 65.1382 15.625 71.6062L11.7187 88.2812L28.375 84.375C37.4856 89.843 48.3754 91.5252 58.7113 89.0612C69.0471 86.5972 78.0068 80.1829 83.6706 71.1928C89.3344 62.2026 91.2518 51.3517 89.0119 40.965C86.772 30.5782 80.553 21.4819 71.6875 15.625C65.1938 11.535 57.6744 9.36804 50 9.375Z" fill="white"/>
</g>
<defs>
<clipPath id="clip0_204_8">
<rect width="100" height="100" fill="white"/>
</clipPath>
</defs>
</svg>
