<svg width="100" height="100" viewBox="0 0 100 100" fill="none" xmlns="http://www.w3.org/2000/svg">
<g clip-path="url(#clip0_204_6)">
<path d="M100 50C100 63.2608 94.7322 75.9785 85.3553 85.3553C75.9785 94.7322 63.2608 100 50 100C36.7392 100 24.0215 94.7322 14.6447 85.3553C5.26784 75.9785 0 63.2608 0 50C0 36.7392 5.26784 24.0215 14.6447 14.6447C24.0215 5.26784 36.7392 0 50 0C63.2608 0 75.9785 5.26784 85.3553 14.6447C94.7322 24.0215 100 36.7392 100 50ZM51.7937 36.9125C46.9271 38.9375 37.2063 43.125 22.6313 49.475C20.2688 50.4125 19.0292 51.3333 18.9125 52.2375C18.725 53.7562 20.6313 54.3563 23.225 55.175L24.3188 55.5188C26.8688 56.35 30.3062 57.3188 32.0875 57.3563C33.7125 57.3979 35.5208 56.7313 37.5125 55.3563C51.1333 46.1646 58.1625 41.5187 58.6 41.4187C58.9125 41.3437 59.35 41.2563 59.6375 41.5188C59.925 41.7813 59.9 42.2687 59.8688 42.4C59.6813 43.2062 52.2 50.1562 48.3312 53.7562C47.125 54.8812 46.2688 55.675 46.0938 55.8563C45.7085 56.2502 45.3168 56.6378 44.9187 57.0188C42.5437 59.3063 40.7688 61.0188 45.0125 63.8188C47.0563 65.1688 48.6938 66.275 50.325 67.3875C52.1 68.6 53.875 69.8063 56.175 71.3188C56.7583 71.7021 57.3208 72.0917 57.8625 72.4875C59.9313 73.9625 61.8 75.2875 64.0938 75.075C65.4313 74.95 66.8125 73.7 67.5125 69.95C69.1688 61.0938 72.425 41.9125 73.175 34.0062C73.2221 33.349 73.1949 32.6886 73.0937 32.0375C73.0331 31.5126 72.7791 31.029 72.3813 30.6812C71.8118 30.2902 71.1344 30.087 70.4437 30.1C68.5687 30.1312 65.675 31.1375 51.7937 36.9125Z" fill="white"/>
</g>
<defs>
<clipPath id="clip0_204_6">
<rect width="100" height="100" fill="white"/>
</clipPath>
</defs>
</svg>
