<svg width="13" height="13" viewBox="0 0 13 13" fill="none" xmlns="http://www.w3.org/2000/svg">
<path d="M2.48468e-05 0.995071C2.48949e-05 0.445071 0.446028 7.32895e-05 0.995028 7.33375e-05L12 10.5C12.2639 10.5 12.517 10.6048 12.7036 10.7914C12.8902 10.978 12.995 11.2311 12.995 11.495C12.995 11.7589 12.8902 12.012 12.7036 12.1986C12.517 12.3852 12.2639 12.49 12 12.49L0.995028 1.99007C0.445027 1.99007 2.47987e-05 1.54507 2.48468e-05 0.995071Z" fill="white"/>
<path d="M1.24751 12.7425C0.697514 12.7425 0.252516 12.2965 0.252516 11.7475L10.7524 0.742559C10.7524 0.478658 10.8572 0.225559 11.0438 0.0389586C11.2304 -0.147641 11.4835 -0.252441 11.7474 -0.252441C12.0113 -0.252441 12.2644 -0.147641 12.451 0.0389586C12.6376 0.225559 12.7424 0.478658 12.7424 0.742558L2.24251 11.7475C2.24251 12.2975 1.79751 12.7425 1.24751 12.7425Z" fill="white"/>
</svg>
